<?xml version="1.0" encoding="UTF-8"?>
<!DOCTYPE svg PUBLIC "-//W3C//DTD SVG 1.1//EN" "http://www.w3.org/Graphics/SVG/1.1/DTD/svg11.dtd">
<svg width="512mm" height="288mm" viewBox="0 0 51200 28800" version="1.1" xmlns="http://www.w3.org/2000/svg" xmlns:xlink="http://www.w3.org/1999/xlink" stroke-width="28.222" stroke-linejoin="round" xml:space="preserve">
 <path fill="rgb(255,255,255)" stroke="none" d="M 25594,28793 L -13,28793 -13,-13 51201,-13 51201,28793 25594,28793 Z"/>
 <path fill="none" stroke="rgb(179,179,179)" stroke-linejoin="round" d="M 24277,27293 L 2188,27293 2188,2253 46365,2253 46365,27293 24277,27293 Z"/>
 <path fill="none" stroke="rgb(179,179,179)" stroke-linejoin="round" d="M 46365,27292 L 2188,27292"/>
 <path fill="none" stroke="rgb(179,179,179)" stroke-linejoin="round" d="M 46365,23118 L 2188,23118"/>
 <path fill="none" stroke="rgb(179,179,179)" stroke-linejoin="round" d="M 46365,18945 L 2188,18945"/>
 <path fill="none" stroke="rgb(179,179,179)" stroke-linejoin="round" d="M 46365,14771 L 2188,14771"/>
 <path fill="none" stroke="rgb(179,179,179)" stroke-linejoin="round" d="M 46365,10599 L 2188,10599"/>
 <path fill="none" stroke="rgb(179,179,179)" stroke-linejoin="round" d="M 46365,6425 L 2188,6425"/>
 <path fill="none" stroke="rgb(179,179,179)" stroke-linejoin="round" d="M 46365,2252 L 2188,2252"/>
 <path fill="none" stroke="rgb(179,179,179)" stroke-linejoin="round" d="M 2188,27442 L 2188,27292"/>
 <path fill="none" stroke="rgb(179,179,179)" stroke-linejoin="round" d="M 2188,27442 L 2188,27292"/>
 <path fill="none" stroke="rgb(179,179,179)" stroke-linejoin="round" d="M 2638,27442 L 2638,27292"/>
 <path fill="none" stroke="rgb(179,179,179)" stroke-linejoin="round" d="M 2638,27442 L 2638,27292"/>
 <path fill="none" stroke="rgb(179,179,179)" stroke-linejoin="round" d="M 3089,27442 L 3089,27292"/>
 <path fill="none" stroke="rgb(179,179,179)" stroke-linejoin="round" d="M 3089,27442 L 3089,27292"/>
 <path fill="none" stroke="rgb(179,179,179)" stroke-linejoin="round" d="M 3540,27442 L 3540,27292"/>
 <path fill="none" stroke="rgb(179,179,179)" stroke-linejoin="round" d="M 3540,27442 L 3540,27292"/>
 <path fill="none" stroke="rgb(179,179,179)" stroke-linejoin="round" d="M 3991,27442 L 3991,27292"/>
 <path fill="none" stroke="rgb(179,179,179)" stroke-linejoin="round" d="M 3991,27442 L 3991,27292"/>
 <path fill="none" stroke="rgb(179,179,179)" stroke-linejoin="round" d="M 4441,27442 L 4441,27292"/>
 <path fill="none" stroke="rgb(179,179,179)" stroke-linejoin="round" d="M 4441,27442 L 4441,27292"/>
 <path fill="none" stroke="rgb(179,179,179)" stroke-linejoin="round" d="M 4892,27442 L 4892,27292"/>
 <path fill="none" stroke="rgb(179,179,179)" stroke-linejoin="round" d="M 4892,27442 L 4892,27292"/>
 <path fill="none" stroke="rgb(179,179,179)" stroke-linejoin="round" d="M 5343,27442 L 5343,27292"/>
 <path fill="none" stroke="rgb(179,179,179)" stroke-linejoin="round" d="M 5343,27442 L 5343,27292"/>
 <path fill="none" stroke="rgb(179,179,179)" stroke-linejoin="round" d="M 5794,27442 L 5794,27292"/>
 <path fill="none" stroke="rgb(179,179,179)" stroke-linejoin="round" d="M 5794,27442 L 5794,27292"/>
 <path fill="none" stroke="rgb(179,179,179)" stroke-linejoin="round" d="M 6245,27442 L 6245,27292"/>
 <path fill="none" stroke="rgb(179,179,179)" stroke-linejoin="round" d="M 6245,27442 L 6245,27292"/>
 <path fill="none" stroke="rgb(179,179,179)" stroke-linejoin="round" d="M 6695,27442 L 6695,27292"/>
 <path fill="none" stroke="rgb(179,179,179)" stroke-linejoin="round" d="M 6695,27442 L 6695,27292"/>
 <path fill="none" stroke="rgb(179,179,179)" stroke-linejoin="round" d="M 7146,27442 L 7146,27292"/>
 <path fill="none" stroke="rgb(179,179,179)" stroke-linejoin="round" d="M 7146,27442 L 7146,27292"/>
 <path fill="none" stroke="rgb(179,179,179)" stroke-linejoin="round" d="M 7597,27442 L 7597,27292"/>
 <path fill="none" stroke="rgb(179,179,179)" stroke-linejoin="round" d="M 7597,27442 L 7597,27292"/>
 <path fill="none" stroke="rgb(179,179,179)" stroke-linejoin="round" d="M 8048,27442 L 8048,27292"/>
 <path fill="none" stroke="rgb(179,179,179)" stroke-linejoin="round" d="M 8048,27442 L 8048,27292"/>
 <path fill="none" stroke="rgb(179,179,179)" stroke-linejoin="round" d="M 8499,27442 L 8499,27292"/>
 <path fill="none" stroke="rgb(179,179,179)" stroke-linejoin="round" d="M 8499,27442 L 8499,27292"/>
 <path fill="none" stroke="rgb(179,179,179)" stroke-linejoin="round" d="M 8949,27442 L 8949,27292"/>
 <path fill="none" stroke="rgb(179,179,179)" stroke-linejoin="round" d="M 8949,27442 L 8949,27292"/>
 <path fill="none" stroke="rgb(179,179,179)" stroke-linejoin="round" d="M 9400,27442 L 9400,27292"/>
 <path fill="none" stroke="rgb(179,179,179)" stroke-linejoin="round" d="M 9400,27442 L 9400,27292"/>
 <path fill="none" stroke="rgb(179,179,179)" stroke-linejoin="round" d="M 9851,27442 L 9851,27292"/>
 <path fill="none" stroke="rgb(179,179,179)" stroke-linejoin="round" d="M 9851,27442 L 9851,27292"/>
 <path fill="none" stroke="rgb(179,179,179)" stroke-linejoin="round" d="M 10302,27442 L 10302,27292"/>
 <path fill="none" stroke="rgb(179,179,179)" stroke-linejoin="round" d="M 10302,27442 L 10302,27292"/>
 <path fill="none" stroke="rgb(179,179,179)" stroke-linejoin="round" d="M 10753,27442 L 10753,27292"/>
 <path fill="none" stroke="rgb(179,179,179)" stroke-linejoin="round" d="M 10753,27442 L 10753,27292"/>
 <path fill="none" stroke="rgb(179,179,179)" stroke-linejoin="round" d="M 11203,27442 L 11203,27292"/>
 <path fill="none" stroke="rgb(179,179,179)" stroke-linejoin="round" d="M 11203,27442 L 11203,27292"/>
 <path fill="none" stroke="rgb(179,179,179)" stroke-linejoin="round" d="M 11654,27442 L 11654,27292"/>
 <path fill="none" stroke="rgb(179,179,179)" stroke-linejoin="round" d="M 11654,27442 L 11654,27292"/>
 <path fill="none" stroke="rgb(179,179,179)" stroke-linejoin="round" d="M 12105,27442 L 12105,27292"/>
 <path fill="none" stroke="rgb(179,179,179)" stroke-linejoin="round" d="M 12105,27442 L 12105,27292"/>
 <path fill="none" stroke="rgb(179,179,179)" stroke-linejoin="round" d="M 12556,27442 L 12556,27292"/>
 <path fill="none" stroke="rgb(179,179,179)" stroke-linejoin="round" d="M 12556,27442 L 12556,27292"/>
 <path fill="none" stroke="rgb(179,179,179)" stroke-linejoin="round" d="M 13007,27442 L 13007,27292"/>
 <path fill="none" stroke="rgb(179,179,179)" stroke-linejoin="round" d="M 13007,27442 L 13007,27292"/>
 <path fill="none" stroke="rgb(179,179,179)" stroke-linejoin="round" d="M 13457,27442 L 13457,27292"/>
 <path fill="none" stroke="rgb(179,179,179)" stroke-linejoin="round" d="M 13457,27442 L 13457,27292"/>
 <path fill="none" stroke="rgb(179,179,179)" stroke-linejoin="round" d="M 13908,27442 L 13908,27292"/>
 <path fill="none" stroke="rgb(179,179,179)" stroke-linejoin="round" d="M 13908,27442 L 13908,27292"/>
 <path fill="none" stroke="rgb(179,179,179)" stroke-linejoin="round" d="M 14359,27442 L 14359,27292"/>
 <path fill="none" stroke="rgb(179,179,179)" stroke-linejoin="round" d="M 14359,27442 L 14359,27292"/>
 <path fill="none" stroke="rgb(179,179,179)" stroke-linejoin="round" d="M 14810,27442 L 14810,27292"/>
 <path fill="none" stroke="rgb(179,179,179)" stroke-linejoin="round" d="M 14810,27442 L 14810,27292"/>
 <path fill="none" stroke="rgb(179,179,179)" stroke-linejoin="round" d="M 15261,27442 L 15261,27292"/>
 <path fill="none" stroke="rgb(179,179,179)" stroke-linejoin="round" d="M 15261,27442 L 15261,27292"/>
 <path fill="none" stroke="rgb(179,179,179)" stroke-linejoin="round" d="M 15711,27442 L 15711,27292"/>
 <path fill="none" stroke="rgb(179,179,179)" stroke-linejoin="round" d="M 15711,27442 L 15711,27292"/>
 <path fill="none" stroke="rgb(179,179,179)" stroke-linejoin="round" d="M 16162,27442 L 16162,27292"/>
 <path fill="none" stroke="rgb(179,179,179)" stroke-linejoin="round" d="M 16162,27442 L 16162,27292"/>
 <path fill="none" stroke="rgb(179,179,179)" stroke-linejoin="round" d="M 16613,27442 L 16613,27292"/>
 <path fill="none" stroke="rgb(179,179,179)" stroke-linejoin="round" d="M 16613,27442 L 16613,27292"/>
 <path fill="none" stroke="rgb(179,179,179)" stroke-linejoin="round" d="M 17064,27442 L 17064,27292"/>
 <path fill="none" stroke="rgb(179,179,179)" stroke-linejoin="round" d="M 17064,27442 L 17064,27292"/>
 <path fill="none" stroke="rgb(179,179,179)" stroke-linejoin="round" d="M 17515,27442 L 17515,27292"/>
 <path fill="none" stroke="rgb(179,179,179)" stroke-linejoin="round" d="M 17515,27442 L 17515,27292"/>
 <path fill="none" stroke="rgb(179,179,179)" stroke-linejoin="round" d="M 17965,27442 L 17965,27292"/>
 <path fill="none" stroke="rgb(179,179,179)" stroke-linejoin="round" d="M 17965,27442 L 17965,27292"/>
 <path fill="none" stroke="rgb(179,179,179)" stroke-linejoin="round" d="M 18416,27442 L 18416,27292"/>
 <path fill="none" stroke="rgb(179,179,179)" stroke-linejoin="round" d="M 18416,27442 L 18416,27292"/>
 <path fill="none" stroke="rgb(179,179,179)" stroke-linejoin="round" d="M 18867,27442 L 18867,27292"/>
 <path fill="none" stroke="rgb(179,179,179)" stroke-linejoin="round" d="M 18867,27442 L 18867,27292"/>
 <path fill="none" stroke="rgb(179,179,179)" stroke-linejoin="round" d="M 19318,27442 L 19318,27292"/>
 <path fill="none" stroke="rgb(179,179,179)" stroke-linejoin="round" d="M 19318,27442 L 19318,27292"/>
 <path fill="none" stroke="rgb(179,179,179)" stroke-linejoin="round" d="M 19769,27442 L 19769,27292"/>
 <path fill="none" stroke="rgb(179,179,179)" stroke-linejoin="round" d="M 19769,27442 L 19769,27292"/>
 <path fill="none" stroke="rgb(179,179,179)" stroke-linejoin="round" d="M 20219,27442 L 20219,27292"/>
 <path fill="none" stroke="rgb(179,179,179)" stroke-linejoin="round" d="M 20219,27442 L 20219,27292"/>
 <path fill="none" stroke="rgb(179,179,179)" stroke-linejoin="round" d="M 20670,27442 L 20670,27292"/>
 <path fill="none" stroke="rgb(179,179,179)" stroke-linejoin="round" d="M 20670,27442 L 20670,27292"/>
 <path fill="none" stroke="rgb(179,179,179)" stroke-linejoin="round" d="M 21121,27442 L 21121,27292"/>
 <path fill="none" stroke="rgb(179,179,179)" stroke-linejoin="round" d="M 21121,27442 L 21121,27292"/>
 <path fill="none" stroke="rgb(179,179,179)" stroke-linejoin="round" d="M 21572,27442 L 21572,27292"/>
 <path fill="none" stroke="rgb(179,179,179)" stroke-linejoin="round" d="M 21572,27442 L 21572,27292"/>
 <path fill="none" stroke="rgb(179,179,179)" stroke-linejoin="round" d="M 22023,27442 L 22023,27292"/>
 <path fill="none" stroke="rgb(179,179,179)" stroke-linejoin="round" d="M 22023,27442 L 22023,27292"/>
 <path fill="none" stroke="rgb(179,179,179)" stroke-linejoin="round" d="M 22473,27442 L 22473,27292"/>
 <path fill="none" stroke="rgb(179,179,179)" stroke-linejoin="round" d="M 22473,27442 L 22473,27292"/>
 <path fill="none" stroke="rgb(179,179,179)" stroke-linejoin="round" d="M 22924,27442 L 22924,27292"/>
 <path fill="none" stroke="rgb(179,179,179)" stroke-linejoin="round" d="M 22924,27442 L 22924,27292"/>
 <path fill="none" stroke="rgb(179,179,179)" stroke-linejoin="round" d="M 23375,27442 L 23375,27292"/>
 <path fill="none" stroke="rgb(179,179,179)" stroke-linejoin="round" d="M 23375,27442 L 23375,27292"/>
 <path fill="none" stroke="rgb(179,179,179)" stroke-linejoin="round" d="M 23826,27442 L 23826,27292"/>
 <path fill="none" stroke="rgb(179,179,179)" stroke-linejoin="round" d="M 23826,27442 L 23826,27292"/>
 <path fill="none" stroke="rgb(179,179,179)" stroke-linejoin="round" d="M 24276,27442 L 24276,27292"/>
 <path fill="none" stroke="rgb(179,179,179)" stroke-linejoin="round" d="M 24276,27442 L 24276,27292"/>
 <path fill="none" stroke="rgb(179,179,179)" stroke-linejoin="round" d="M 24727,27442 L 24727,27292"/>
 <path fill="none" stroke="rgb(179,179,179)" stroke-linejoin="round" d="M 24727,27442 L 24727,27292"/>
 <path fill="none" stroke="rgb(179,179,179)" stroke-linejoin="round" d="M 25178,27442 L 25178,27292"/>
 <path fill="none" stroke="rgb(179,179,179)" stroke-linejoin="round" d="M 25178,27442 L 25178,27292"/>
 <path fill="none" stroke="rgb(179,179,179)" stroke-linejoin="round" d="M 25628,27442 L 25628,27292"/>
 <path fill="none" stroke="rgb(179,179,179)" stroke-linejoin="round" d="M 25628,27442 L 25628,27292"/>
 <path fill="none" stroke="rgb(179,179,179)" stroke-linejoin="round" d="M 26079,27442 L 26079,27292"/>
 <path fill="none" stroke="rgb(179,179,179)" stroke-linejoin="round" d="M 26079,27442 L 26079,27292"/>
 <path fill="none" stroke="rgb(179,179,179)" stroke-linejoin="round" d="M 26529,27442 L 26529,27292"/>
 <path fill="none" stroke="rgb(179,179,179)" stroke-linejoin="round" d="M 26529,27442 L 26529,27292"/>
 <path fill="none" stroke="rgb(179,179,179)" stroke-linejoin="round" d="M 26980,27442 L 26980,27292"/>
 <path fill="none" stroke="rgb(179,179,179)" stroke-linejoin="round" d="M 26980,27442 L 26980,27292"/>
 <path fill="none" stroke="rgb(179,179,179)" stroke-linejoin="round" d="M 27431,27442 L 27431,27292"/>
 <path fill="none" stroke="rgb(179,179,179)" stroke-linejoin="round" d="M 27431,27442 L 27431,27292"/>
 <path fill="none" stroke="rgb(179,179,179)" stroke-linejoin="round" d="M 27882,27442 L 27882,27292"/>
 <path fill="none" stroke="rgb(179,179,179)" stroke-linejoin="round" d="M 27882,27442 L 27882,27292"/>
 <path fill="none" stroke="rgb(179,179,179)" stroke-linejoin="round" d="M 28333,27442 L 28333,27292"/>
 <path fill="none" stroke="rgb(179,179,179)" stroke-linejoin="round" d="M 28333,27442 L 28333,27292"/>
 <path fill="none" stroke="rgb(179,179,179)" stroke-linejoin="round" d="M 28783,27442 L 28783,27292"/>
 <path fill="none" stroke="rgb(179,179,179)" stroke-linejoin="round" d="M 28783,27442 L 28783,27292"/>
 <path fill="none" stroke="rgb(179,179,179)" stroke-linejoin="round" d="M 29234,27442 L 29234,27292"/>
 <path fill="none" stroke="rgb(179,179,179)" stroke-linejoin="round" d="M 29234,27442 L 29234,27292"/>
 <path fill="none" stroke="rgb(179,179,179)" stroke-linejoin="round" d="M 29685,27442 L 29685,27292"/>
 <path fill="none" stroke="rgb(179,179,179)" stroke-linejoin="round" d="M 29685,27442 L 29685,27292"/>
 <path fill="none" stroke="rgb(179,179,179)" stroke-linejoin="round" d="M 30136,27442 L 30136,27292"/>
 <path fill="none" stroke="rgb(179,179,179)" stroke-linejoin="round" d="M 30136,27442 L 30136,27292"/>
 <path fill="none" stroke="rgb(179,179,179)" stroke-linejoin="round" d="M 30587,27442 L 30587,27292"/>
 <path fill="none" stroke="rgb(179,179,179)" stroke-linejoin="round" d="M 30587,27442 L 30587,27292"/>
 <path fill="none" stroke="rgb(179,179,179)" stroke-linejoin="round" d="M 31037,27442 L 31037,27292"/>
 <path fill="none" stroke="rgb(179,179,179)" stroke-linejoin="round" d="M 31037,27442 L 31037,27292"/>
 <path fill="none" stroke="rgb(179,179,179)" stroke-linejoin="round" d="M 31488,27442 L 31488,27292"/>
 <path fill="none" stroke="rgb(179,179,179)" stroke-linejoin="round" d="M 31488,27442 L 31488,27292"/>
 <path fill="none" stroke="rgb(179,179,179)" stroke-linejoin="round" d="M 31939,27442 L 31939,27292"/>
 <path fill="none" stroke="rgb(179,179,179)" stroke-linejoin="round" d="M 31939,27442 L 31939,27292"/>
 <path fill="none" stroke="rgb(179,179,179)" stroke-linejoin="round" d="M 32390,27442 L 32390,27292"/>
 <path fill="none" stroke="rgb(179,179,179)" stroke-linejoin="round" d="M 32390,27442 L 32390,27292"/>
 <path fill="none" stroke="rgb(179,179,179)" stroke-linejoin="round" d="M 32841,27442 L 32841,27292"/>
 <path fill="none" stroke="rgb(179,179,179)" stroke-linejoin="round" d="M 32841,27442 L 32841,27292"/>
 <path fill="none" stroke="rgb(179,179,179)" stroke-linejoin="round" d="M 33291,27442 L 33291,27292"/>
 <path fill="none" stroke="rgb(179,179,179)" stroke-linejoin="round" d="M 33291,27442 L 33291,27292"/>
 <path fill="none" stroke="rgb(179,179,179)" stroke-linejoin="round" d="M 33742,27442 L 33742,27292"/>
 <path fill="none" stroke="rgb(179,179,179)" stroke-linejoin="round" d="M 33742,27442 L 33742,27292"/>
 <path fill="none" stroke="rgb(179,179,179)" stroke-linejoin="round" d="M 34193,27442 L 34193,27292"/>
 <path fill="none" stroke="rgb(179,179,179)" stroke-linejoin="round" d="M 34193,27442 L 34193,27292"/>
 <path fill="none" stroke="rgb(179,179,179)" stroke-linejoin="round" d="M 34644,27442 L 34644,27292"/>
 <path fill="none" stroke="rgb(179,179,179)" stroke-linejoin="round" d="M 34644,27442 L 34644,27292"/>
 <path fill="none" stroke="rgb(179,179,179)" stroke-linejoin="round" d="M 35095,27442 L 35095,27292"/>
 <path fill="none" stroke="rgb(179,179,179)" stroke-linejoin="round" d="M 35095,27442 L 35095,27292"/>
 <path fill="none" stroke="rgb(179,179,179)" stroke-linejoin="round" d="M 35545,27442 L 35545,27292"/>
 <path fill="none" stroke="rgb(179,179,179)" stroke-linejoin="round" d="M 35545,27442 L 35545,27292"/>
 <path fill="none" stroke="rgb(179,179,179)" stroke-linejoin="round" d="M 35996,27442 L 35996,27292"/>
 <path fill="none" stroke="rgb(179,179,179)" stroke-linejoin="round" d="M 35996,27442 L 35996,27292"/>
 <path fill="none" stroke="rgb(179,179,179)" stroke-linejoin="round" d="M 36447,27442 L 36447,27292"/>
 <path fill="none" stroke="rgb(179,179,179)" stroke-linejoin="round" d="M 36447,27442 L 36447,27292"/>
 <path fill="none" stroke="rgb(179,179,179)" stroke-linejoin="round" d="M 36898,27442 L 36898,27292"/>
 <path fill="none" stroke="rgb(179,179,179)" stroke-linejoin="round" d="M 36898,27442 L 36898,27292"/>
 <path fill="none" stroke="rgb(179,179,179)" stroke-linejoin="round" d="M 37349,27442 L 37349,27292"/>
 <path fill="none" stroke="rgb(179,179,179)" stroke-linejoin="round" d="M 37349,27442 L 37349,27292"/>
 <path fill="none" stroke="rgb(179,179,179)" stroke-linejoin="round" d="M 37799,27442 L 37799,27292"/>
 <path fill="none" stroke="rgb(179,179,179)" stroke-linejoin="round" d="M 37799,27442 L 37799,27292"/>
 <path fill="none" stroke="rgb(179,179,179)" stroke-linejoin="round" d="M 38250,27442 L 38250,27292"/>
 <path fill="none" stroke="rgb(179,179,179)" stroke-linejoin="round" d="M 38250,27442 L 38250,27292"/>
 <path fill="none" stroke="rgb(179,179,179)" stroke-linejoin="round" d="M 38701,27442 L 38701,27292"/>
 <path fill="none" stroke="rgb(179,179,179)" stroke-linejoin="round" d="M 38701,27442 L 38701,27292"/>
 <path fill="none" stroke="rgb(179,179,179)" stroke-linejoin="round" d="M 39152,27442 L 39152,27292"/>
 <path fill="none" stroke="rgb(179,179,179)" stroke-linejoin="round" d="M 39152,27442 L 39152,27292"/>
 <path fill="none" stroke="rgb(179,179,179)" stroke-linejoin="round" d="M 39603,27442 L 39603,27292"/>
 <path fill="none" stroke="rgb(179,179,179)" stroke-linejoin="round" d="M 39603,27442 L 39603,27292"/>
 <path fill="none" stroke="rgb(179,179,179)" stroke-linejoin="round" d="M 40053,27442 L 40053,27292"/>
 <path fill="none" stroke="rgb(179,179,179)" stroke-linejoin="round" d="M 40053,27442 L 40053,27292"/>
 <path fill="none" stroke="rgb(179,179,179)" stroke-linejoin="round" d="M 40504,27442 L 40504,27292"/>
 <path fill="none" stroke="rgb(179,179,179)" stroke-linejoin="round" d="M 40504,27442 L 40504,27292"/>
 <path fill="none" stroke="rgb(179,179,179)" stroke-linejoin="round" d="M 40955,27442 L 40955,27292"/>
 <path fill="none" stroke="rgb(179,179,179)" stroke-linejoin="round" d="M 40955,27442 L 40955,27292"/>
 <path fill="none" stroke="rgb(179,179,179)" stroke-linejoin="round" d="M 41406,27442 L 41406,27292"/>
 <path fill="none" stroke="rgb(179,179,179)" stroke-linejoin="round" d="M 41406,27442 L 41406,27292"/>
 <path fill="none" stroke="rgb(179,179,179)" stroke-linejoin="round" d="M 41857,27442 L 41857,27292"/>
 <path fill="none" stroke="rgb(179,179,179)" stroke-linejoin="round" d="M 41857,27442 L 41857,27292"/>
 <path fill="none" stroke="rgb(179,179,179)" stroke-linejoin="round" d="M 42307,27442 L 42307,27292"/>
 <path fill="none" stroke="rgb(179,179,179)" stroke-linejoin="round" d="M 42307,27442 L 42307,27292"/>
 <path fill="none" stroke="rgb(179,179,179)" stroke-linejoin="round" d="M 42758,27442 L 42758,27292"/>
 <path fill="none" stroke="rgb(179,179,179)" stroke-linejoin="round" d="M 42758,27442 L 42758,27292"/>
 <path fill="none" stroke="rgb(179,179,179)" stroke-linejoin="round" d="M 43209,27442 L 43209,27292"/>
 <path fill="none" stroke="rgb(179,179,179)" stroke-linejoin="round" d="M 43209,27442 L 43209,27292"/>
 <path fill="none" stroke="rgb(179,179,179)" stroke-linejoin="round" d="M 43660,27442 L 43660,27292"/>
 <path fill="none" stroke="rgb(179,179,179)" stroke-linejoin="round" d="M 43660,27442 L 43660,27292"/>
 <path fill="none" stroke="rgb(179,179,179)" stroke-linejoin="round" d="M 44111,27442 L 44111,27292"/>
 <path fill="none" stroke="rgb(179,179,179)" stroke-linejoin="round" d="M 44111,27442 L 44111,27292"/>
 <path fill="none" stroke="rgb(179,179,179)" stroke-linejoin="round" d="M 44561,27442 L 44561,27292"/>
 <path fill="none" stroke="rgb(179,179,179)" stroke-linejoin="round" d="M 44561,27442 L 44561,27292"/>
 <path fill="none" stroke="rgb(179,179,179)" stroke-linejoin="round" d="M 45012,27442 L 45012,27292"/>
 <path fill="none" stroke="rgb(179,179,179)" stroke-linejoin="round" d="M 45012,27442 L 45012,27292"/>
 <path fill="none" stroke="rgb(179,179,179)" stroke-linejoin="round" d="M 45463,27442 L 45463,27292"/>
 <path fill="none" stroke="rgb(179,179,179)" stroke-linejoin="round" d="M 45463,27442 L 45463,27292"/>
 <path fill="none" stroke="rgb(179,179,179)" stroke-linejoin="round" d="M 45914,27442 L 45914,27292"/>
 <path fill="none" stroke="rgb(179,179,179)" stroke-linejoin="round" d="M 45914,27442 L 45914,27292"/>
 <path fill="none" stroke="rgb(179,179,179)" stroke-linejoin="round" d="M 46364,27442 L 46364,27292"/>
 <path fill="none" stroke="rgb(179,179,179)" stroke-linejoin="round" d="M 46364,27442 L 46364,27292"/>
 <path fill="none" stroke="rgb(179,179,179)" stroke-linejoin="round" d="M 2188,27292 L 46365,27292"/>
 <path fill="none" stroke="rgb(179,179,179)" stroke-linejoin="round" d="M 2038,27292 L 2188,27292"/>
 <path fill="none" stroke="rgb(179,179,179)" stroke-linejoin="round" d="M 2038,27292 L 2188,27292"/>
 <path fill="none" stroke="rgb(179,179,179)" stroke-linejoin="round" d="M 2038,23118 L 2188,23118"/>
 <path fill="none" stroke="rgb(179,179,179)" stroke-linejoin="round" d="M 2038,23118 L 2188,23118"/>
 <path fill="none" stroke="rgb(179,179,179)" stroke-linejoin="round" d="M 2038,18945 L 2188,18945"/>
 <path fill="none" stroke="rgb(179,179,179)" stroke-linejoin="round" d="M 2038,18945 L 2188,18945"/>
 <path fill="none" stroke="rgb(179,179,179)" stroke-linejoin="round" d="M 2038,14771 L 2188,14771"/>
 <path fill="none" stroke="rgb(179,179,179)" stroke-linejoin="round" d="M 2038,14771 L 2188,14771"/>
 <path fill="none" stroke="rgb(179,179,179)" stroke-linejoin="round" d="M 2038,10598 L 2188,10598"/>
 <path fill="none" stroke="rgb(179,179,179)" stroke-linejoin="round" d="M 2038,10598 L 2188,10598"/>
 <path fill="none" stroke="rgb(179,179,179)" stroke-linejoin="round" d="M 2038,6425 L 2188,6425"/>
 <path fill="none" stroke="rgb(179,179,179)" stroke-linejoin="round" d="M 2038,6425 L 2188,6425"/>
 <path fill="none" stroke="rgb(179,179,179)" stroke-linejoin="round" d="M 2038,2252 L 2188,2252"/>
 <path fill="none" stroke="rgb(179,179,179)" stroke-linejoin="round" d="M 2038,2252 L 2188,2252"/>
 <path fill="none" stroke="rgb(179,179,179)" stroke-linejoin="round" d="M 2188,27292 L 2188,2252"/>
 <path fill="none" stroke="rgb(255,66,14)" stroke-width="80" stroke-linejoin="round" d="M 2188,24682 L 2638,24682 2638,22075 3089,22075 3089,22075 3540,22075 3540,19465 3991,19465 3991,19465 4441,19465 4441,19465 4892,19465 4892,19465 5343,19465 5343,16858 5794,16858 5794,16858 6245,16858 6245,16858 6695,16858 6695,16858 7146,16858 7146,16858 7597,16858 7597,16858 8048,16858 8048,16858 8499,16858 8499,16858 8949,16858 8949,14249 9400,14249 9400,14249 9851,14249 9851,14249 10302,14249 10302,14249 10753,14249 10753,14249 11203,14249 11203,14249 11654,14249 11654,14249 12105,14249 12105,14249 12556,14249 12556,14249 13007,14249 13007,14249 13457,14249 13457,14249 13908,14249 13908,14249 14359,14249 14359,14249 14810,14249 14810,14249 15261,14249 15261,14249 15711,14249 15711,14249 16162,14249 16162,11642 16613,11642 16613,11642 17064,11642 17064,11642 17515,11642 17515,11642 17965,11642 17965,11642 18416,11642 18416,11642 18867,11642 18867,11642 19318,11642 19318,11642 19769,11642 19769,11642 20219,11642 20219,11642 20670,11642 20670,11642 21121,11642 21121,11642 21572,11642 21572,11642 22023,11642 22023,11642 22473,11642 22473,11642 22924,11642 22924,11642 23375,11642 23375,11642 23826,11642 23826,11642 24276,11642 24276,11642 24727,11642 24727,11642 25178,11642 25178,11642 25628,11642 25628,11642 26079,11642 26079,11642 26529,11642 26529,11642 26980,11642 26980,11642 27431,11642 27431,11642 27882,11642 27882,11642 28333,11642 28333,11642 28783,11642 28783,11642 29234,11642 29234,11642 29685,11642 29685,11642 30136,11642 30136,11642 30587,11642 30587,9033 31037,9033 31037,9033 31488,9033 31488,9033 31939,9033 31939,9033 32390,9033 32390,9033 32841,9033 32841,9033 33291,9033 33291,9033 33742,9033 33742,9033 34193,9033 34193,9033 34644,9033 34644,9033 35095,9033 35095,9033 35545,9033 35545,9033 35996,9033 35996,9033 36447,9033 36447,9033 36898,9033 36898,9033 37349,9033 37349,9033 37799,9033 37799,9033 38250,9033 38250,9033 38701,9033 38701,9033 39152,9033 39152,9033 39603,9033 39603,9033 40053,9033 40053,9033 40504,9033 40504,9033 40955,9033 40955,9033 41406,9033 41406,9033 41857,9033 41857,9033 42307,9033 42307,9033 42758,9033 42758,9033 43209,9033 43209,9033 43660,9033 43660,9033 44111,9033 44111,9033 44561,9033 44561,9033 45012,9033 45012,9033 45463,9033 45463,9033 45914,9033 45914,9033 46365,9033 46365,9033"/>
 <path fill="none" stroke="rgb(129,212,26)" stroke-width="80" stroke-linejoin="round" d="M 2188,24682 L 2638,24682 2638,23118 3089,23118 3089,22075 3540,22075 3540,20869 3991,20869 3991,20335 4441,20335 4441,19702 4892,19702 4892,18945 5343,18945 5343,18945 5794,18945 5794,18016 6245,18016 6245,18016 6695,18016 6695,16858 7146,16858 7146,16858 7597,16858 7597,16858 8048,16858 8048,16858 8499,16858 8499,16858 8949,16858 8949,15367 9400,15367 9400,15367 9851,15367 9851,15367 10302,15367 10302,15367 10753,15367 10753,15367 11203,15367 11203,15367 11654,15367 11654,15367 12105,15367 12105,13380 12556,13380 12556,13380 13007,13380 13007,13380 13457,13380 13457,13380 13908,13380 13908,13380 14359,13380 14359,13380 14810,13380 14810,13380 15261,13380 15261,13380 15711,13380 15711,13380 16162,13380 16162,13380 16613,13380 16613,13380 17064,13380 17064,13380 17515,13380 17515,13380 17965,13380 17965,13380 18416,13380 18416,13380 18867,13380 18867,13380 19318,13380 19318,13380 19769,13380 19769,10599 20219,10599 20219,10599 20670,10599 20670,10599 21121,10599 21121,10599 21572,10599 21572,10599 22023,10599 22023,10599 22473,10599 22473,10599 22924,10599 22924,10599 23375,10599 23375,10599 23826,10599 23826,10599 24276,10599 24276,10599 24727,10599 24727,10599 25178,10599 25178,10599 25628,10599 25628,10599 26079,10599 26079,10599 26529,10599 26529,10599 26980,10599 26980,10599 27431,10599 27431,10599 27882,10599 27882,10599 28333,10599 28333,10599 28783,10599 28783,10599 29234,10599 29234,10599 29685,10599 29685,10599 30136,10599 30136,10599 30587,10599 30587,10599 31037,10599 31037,10599 31488,10599 31488,10599 31939,10599 31939,10599 32390,10599 32390,10599 32841,10599 32841,10599 33291,10599 33291,10599 33742,10599 33742,10599 34193,10599 34193,10599 34644,10599 34644,10599 35095,10599 35095,10599 35545,10599 35545,10599 35996,10599 35996,10599 36447,10599 36447,10599 36898,10599 36898,10599 37349,10599 37349,10599 37799,10599 37799,10599 38250,10599 38250,10599 38701,10599 38701,10599 39152,10599 39152,10599 39603,10599 39603,6425 40053,6425 40053,6425 40504,6425 40504,6425 40955,6425 40955,6425 41406,6425 41406,6425 41857,6425 41857,6425 42307,6425 42307,6425 42758,6425 42758,6425 43209,6425 43209,6425 43660,6425 43660,6425 44111,6425 44111,6425 44561,6425 44561,6425 45012,6425 45012,6425 45463,6425 45463,6425 45914,6425 45914,6425 46365,6425 46365,6425"/>
 <path fill="none" stroke="rgb(0,132,209)" stroke-width="80" stroke-linejoin="round" d="M 2188,24682 L 2638,24682 2638,23118 3089,23118 3089,22075 3540,22075 3540,21070 3991,21070 3991,20335 4441,20335 4441,19939 4892,19939 4892,19465 5343,19465 5343,18945 5794,18945 5794,18596 6245,18596 6245,18016 6695,18016 6695,17834 7146,17834 7146,17509 7597,17509 7597,17183 8048,17183 8048,16858 8499,16858 8499,16858 8949,16858 8949,16484 9400,16484 9400,16112 9851,16112 9851,16112 10302,16112 10302,15739 10753,15739 10753,15739 11203,15739 11203,15367 11654,15367 11654,15367 12105,15367 12105,15117 12556,15117 12556,15117 13007,15117 13007,14683 13457,14683 13457,14683 13908,14683 13908,14683 14359,14683 14359,14248 14810,14248 14810,14248 15261,14248 15261,14248 15711,14248 15711,14248 16162,14248 16162,13814 16613,13814 16613,13814 17064,13814 17064,13814 17515,13814 17515,13380 17965,13380 17965,13380 18416,13380 18416,13380 18867,13380 18867,13380 19318,13380 19318,13380 19769,13380 19769,13206 20219,13206 20219,13206 20670,13206 20670,12685 21121,12685 21121,12685 21572,12685 21572,12685 22023,12685 22023,12685 22473,12685 22473,12685 22924,12685 22924,12685 23375,12685 23375,12163 23826,12163 23826,12163 24276,12163 24276,12163 24727,12163 24727,12163 25178,12163 25178,12163 25628,12163 25628,12163 26079,12163 26079,12163 26529,12163 26529,11642 26980,11642 26980,11642 27431,11642 27431,11642 27882,11642 27882,11642 28333,11642 28333,11642 28783,11642 28783,11642 29234,11642 29234,11642 29685,11642 29685,11642 30136,11642 30136,11642 30587,11642 30587,11119 31037,11119 31037,11119 31488,11119 31488,11119 31939,11119 31939,11119 32390,11119 32390,11119 32841,11119 32841,11119 33291,11119 33291,11119 33742,11119 33742,11119 34193,11119 34193,11119 34644,11119 34644,10599 35095,10599 35095,10599 35545,10599 35545,10599 35996,10599 35996,10599 36447,10599 36447,10599 36898,10599 36898,10599 37349,10599 37349,10599 37799,10599 37799,10599 38250,10599 38250,10599 38701,10599 38701,10599 39152,10599 39152,10599 39603,10599 39603,10336 40053,10336 40053,10336 40504,10336 40504,10336 40955,10336 40955,10336 41406,10336 41406,10336 41857,10336 41857,10336 42307,10336 42307,9685 42758,9685 42758,9685 43209,9685 43209,9685 43660,9685 43660,9685 44111,9685 44111,9685 44561,9685 44561,9685 45012,9685 45012,9685 45463,9685 45463,9685 45914,9685 45914,9685 46365,9685 46365,9685"/>
 <text class="SVGTextShape" transform="rotate(-44.9 2044 -35388)"><tspan class="TextParagraph" font-family="Liberation Sans, sans-serif" font-size="353px" font-weight="400"><tspan class="TextPosition" x="2140" y="27898"><tspan fill="rgb(0,0,0)" stroke="none" style="white-space: pre">2</tspan></tspan></tspan></text>
 <text class="SVGTextShape" transform="rotate(-44.9 2945 -35388)"><tspan class="TextParagraph" font-family="Liberation Sans, sans-serif" font-size="353px" font-weight="400"><tspan class="TextPosition" x="3041" y="27898"><tspan fill="rgb(0,0,0)" stroke="none" style="white-space: pre">4</tspan></tspan></tspan></text>
 <text class="SVGTextShape" transform="rotate(-44.9 3847 -35388)"><tspan class="TextParagraph" font-family="Liberation Sans, sans-serif" font-size="353px" font-weight="400"><tspan class="TextPosition" x="3943" y="27898"><tspan fill="rgb(0,0,0)" stroke="none" style="white-space: pre">6</tspan></tspan></tspan></text>
 <text class="SVGTextShape" transform="rotate(-44.9 4748 -35388)"><tspan class="TextParagraph" font-family="Liberation Sans, sans-serif" font-size="353px" font-weight="400"><tspan class="TextPosition" x="4844" y="27898"><tspan fill="rgb(0,0,0)" stroke="none" style="white-space: pre">8</tspan></tspan></tspan></text>
 <text class="SVGTextShape" transform="rotate(-44.9 5519 -35258)"><tspan class="TextParagraph" font-family="Liberation Sans, sans-serif" font-size="353px" font-weight="400"><tspan class="TextPosition" x="5615" y="28028"><tspan fill="rgb(0,0,0)" stroke="none" style="white-space: pre">10</tspan></tspan></tspan></text>
 <text class="SVGTextShape" transform="rotate(-44.9 6420 -35258)"><tspan class="TextParagraph" font-family="Liberation Sans, sans-serif" font-size="353px" font-weight="400"><tspan class="TextPosition" x="6516" y="28028"><tspan fill="rgb(0,0,0)" stroke="none" style="white-space: pre">12</tspan></tspan></tspan></text>
 <text class="SVGTextShape" transform="rotate(-44.9 7322 -35258)"><tspan class="TextParagraph" font-family="Liberation Sans, sans-serif" font-size="353px" font-weight="400"><tspan class="TextPosition" x="7418" y="28028"><tspan fill="rgb(0,0,0)" stroke="none" style="white-space: pre">14</tspan></tspan></tspan></text>
 <text class="SVGTextShape" transform="rotate(-44.9 8224 -35258)"><tspan class="TextParagraph" font-family="Liberation Sans, sans-serif" font-size="353px" font-weight="400"><tspan class="TextPosition" x="8320" y="28028"><tspan fill="rgb(0,0,0)" stroke="none" style="white-space: pre">16</tspan></tspan></tspan></text>
 <text class="SVGTextShape" transform="rotate(-44.9 9125 -35258)"><tspan class="TextParagraph" font-family="Liberation Sans, sans-serif" font-size="353px" font-weight="400"><tspan class="TextPosition" x="9221" y="28028"><tspan fill="rgb(0,0,0)" stroke="none" style="white-space: pre">18</tspan></tspan></tspan></text>
 <text class="SVGTextShape" transform="rotate(-44.9 10027 -35258)"><tspan class="TextParagraph" font-family="Liberation Sans, sans-serif" font-size="353px" font-weight="400"><tspan class="TextPosition" x="10123" y="28028"><tspan fill="rgb(0,0,0)" stroke="none" style="white-space: pre">20</tspan></tspan></tspan></text>
 <text class="SVGTextShape" transform="rotate(-44.9 10928 -35258)"><tspan class="TextParagraph" font-family="Liberation Sans, sans-serif" font-size="353px" font-weight="400"><tspan class="TextPosition" x="11024" y="28028"><tspan fill="rgb(0,0,0)" stroke="none" style="white-space: pre">22</tspan></tspan></tspan></text>
 <text class="SVGTextShape" transform="rotate(-44.9 11830 -35258)"><tspan class="TextParagraph" font-family="Liberation Sans, sans-serif" font-size="353px" font-weight="400"><tspan class="TextPosition" x="11926" y="28028"><tspan fill="rgb(0,0,0)" stroke="none" style="white-space: pre">24</tspan></tspan></tspan></text>
 <text class="SVGTextShape" transform="rotate(-44.9 12732 -35258)"><tspan class="TextParagraph" font-family="Liberation Sans, sans-serif" font-size="353px" font-weight="400"><tspan class="TextPosition" x="12828" y="28028"><tspan fill="rgb(0,0,0)" stroke="none" style="white-space: pre">26</tspan></tspan></tspan></text>
 <text class="SVGTextShape" transform="rotate(-44.9 13633 -35258)"><tspan class="TextParagraph" font-family="Liberation Sans, sans-serif" font-size="353px" font-weight="400"><tspan class="TextPosition" x="13729" y="28028"><tspan fill="rgb(0,0,0)" stroke="none" style="white-space: pre">28</tspan></tspan></tspan></text>
 <text class="SVGTextShape" transform="rotate(-44.9 14535 -35258)"><tspan class="TextParagraph" font-family="Liberation Sans, sans-serif" font-size="353px" font-weight="400"><tspan class="TextPosition" x="14631" y="28028"><tspan fill="rgb(0,0,0)" stroke="none" style="white-space: pre">30</tspan></tspan></tspan></text>
 <text class="SVGTextShape" transform="rotate(-44.9 15436 -35258)"><tspan class="TextParagraph" font-family="Liberation Sans, sans-serif" font-size="353px" font-weight="400"><tspan class="TextPosition" x="15532" y="28028"><tspan fill="rgb(0,0,0)" stroke="none" style="white-space: pre">32</tspan></tspan></tspan></text>
 <text class="SVGTextShape" transform="rotate(-44.9 16338 -35258)"><tspan class="TextParagraph" font-family="Liberation Sans, sans-serif" font-size="353px" font-weight="400"><tspan class="TextPosition" x="16434" y="28028"><tspan fill="rgb(0,0,0)" stroke="none" style="white-space: pre">34</tspan></tspan></tspan></text>
 <text class="SVGTextShape" transform="rotate(-44.9 17240 -35258)"><tspan class="TextParagraph" font-family="Liberation Sans, sans-serif" font-size="353px" font-weight="400"><tspan class="TextPosition" x="17336" y="28028"><tspan fill="rgb(0,0,0)" stroke="none" style="white-space: pre">36</tspan></tspan></tspan></text>
 <text class="SVGTextShape" transform="rotate(-44.9 18141 -35258)"><tspan class="TextParagraph" font-family="Liberation Sans, sans-serif" font-size="353px" font-weight="400"><tspan class="TextPosition" x="18237" y="28028"><tspan fill="rgb(0,0,0)" stroke="none" style="white-space: pre">38</tspan></tspan></tspan></text>
 <text class="SVGTextShape" transform="rotate(-44.9 19043 -35258)"><tspan class="TextParagraph" font-family="Liberation Sans, sans-serif" font-size="353px" font-weight="400"><tspan class="TextPosition" x="19139" y="28028"><tspan fill="rgb(0,0,0)" stroke="none" style="white-space: pre">40</tspan></tspan></tspan></text>
 <text class="SVGTextShape" transform="rotate(-44.9 19944 -35258)"><tspan class="TextParagraph" font-family="Liberation Sans, sans-serif" font-size="353px" font-weight="400"><tspan class="TextPosition" x="20040" y="28028"><tspan fill="rgb(0,0,0)" stroke="none" style="white-space: pre">42</tspan></tspan></tspan></text>
 <text class="SVGTextShape" transform="rotate(-44.9 20846 -35258)"><tspan class="TextParagraph" font-family="Liberation Sans, sans-serif" font-size="353px" font-weight="400"><tspan class="TextPosition" x="20942" y="28028"><tspan fill="rgb(0,0,0)" stroke="none" style="white-space: pre">44</tspan></tspan></tspan></text>
 <text class="SVGTextShape" transform="rotate(-44.9 21748 -35258)"><tspan class="TextParagraph" font-family="Liberation Sans, sans-serif" font-size="353px" font-weight="400"><tspan class="TextPosition" x="21844" y="28028"><tspan fill="rgb(0,0,0)" stroke="none" style="white-space: pre">46</tspan></tspan></tspan></text>
 <text class="SVGTextShape" transform="rotate(-44.9 22649 -35258)"><tspan class="TextParagraph" font-family="Liberation Sans, sans-serif" font-size="353px" font-weight="400"><tspan class="TextPosition" x="22745" y="28028"><tspan fill="rgb(0,0,0)" stroke="none" style="white-space: pre">48</tspan></tspan></tspan></text>
 <text class="SVGTextShape" transform="rotate(-44.9 23551 -35258)"><tspan class="TextParagraph" font-family="Liberation Sans, sans-serif" font-size="353px" font-weight="400"><tspan class="TextPosition" x="23647" y="28028"><tspan fill="rgb(0,0,0)" stroke="none" style="white-space: pre">50</tspan></tspan></tspan></text>
 <text class="SVGTextShape" transform="rotate(-44.9 24452 -35258)"><tspan class="TextParagraph" font-family="Liberation Sans, sans-serif" font-size="353px" font-weight="400"><tspan class="TextPosition" x="24548" y="28028"><tspan fill="rgb(0,0,0)" stroke="none" style="white-space: pre">52</tspan></tspan></tspan></text>
 <text class="SVGTextShape" transform="rotate(-44.9 25354 -35258)"><tspan class="TextParagraph" font-family="Liberation Sans, sans-serif" font-size="353px" font-weight="400"><tspan class="TextPosition" x="25450" y="28028"><tspan fill="rgb(0,0,0)" stroke="none" style="white-space: pre">54</tspan></tspan></tspan></text>
 <text class="SVGTextShape" transform="rotate(-44.9 26255 -35258)"><tspan class="TextParagraph" font-family="Liberation Sans, sans-serif" font-size="353px" font-weight="400"><tspan class="TextPosition" x="26350" y="28028"><tspan fill="rgb(0,0,0)" stroke="none" style="white-space: pre">56</tspan></tspan></tspan></text>
 <text class="SVGTextShape" transform="rotate(-44.9 27157 -35258)"><tspan class="TextParagraph" font-family="Liberation Sans, sans-serif" font-size="353px" font-weight="400"><tspan class="TextPosition" x="27252" y="28028"><tspan fill="rgb(0,0,0)" stroke="none" style="white-space: pre">58</tspan></tspan></tspan></text>
 <text class="SVGTextShape" transform="rotate(-44.9 28059 -35258)"><tspan class="TextParagraph" font-family="Liberation Sans, sans-serif" font-size="353px" font-weight="400"><tspan class="TextPosition" x="28154" y="28028"><tspan fill="rgb(0,0,0)" stroke="none" style="white-space: pre">60</tspan></tspan></tspan></text>
 <text class="SVGTextShape" transform="rotate(-44.9 28960 -35258)"><tspan class="TextParagraph" font-family="Liberation Sans, sans-serif" font-size="353px" font-weight="400"><tspan class="TextPosition" x="29055" y="28028"><tspan fill="rgb(0,0,0)" stroke="none" style="white-space: pre">62</tspan></tspan></tspan></text>
 <text class="SVGTextShape" transform="rotate(-44.9 29862 -35258)"><tspan class="TextParagraph" font-family="Liberation Sans, sans-serif" font-size="353px" font-weight="400"><tspan class="TextPosition" x="29957" y="28028"><tspan fill="rgb(0,0,0)" stroke="none" style="white-space: pre">64</tspan></tspan></tspan></text>
 <text class="SVGTextShape" transform="rotate(-44.9 30763 -35258)"><tspan class="TextParagraph" font-family="Liberation Sans, sans-serif" font-size="353px" font-weight="400"><tspan class="TextPosition" x="30858" y="28028"><tspan fill="rgb(0,0,0)" stroke="none" style="white-space: pre">66</tspan></tspan></tspan></text>
 <text class="SVGTextShape" transform="rotate(-44.9 31665 -35258)"><tspan class="TextParagraph" font-family="Liberation Sans, sans-serif" font-size="353px" font-weight="400"><tspan class="TextPosition" x="31760" y="28028"><tspan fill="rgb(0,0,0)" stroke="none" style="white-space: pre">68</tspan></tspan></tspan></text>
 <text class="SVGTextShape" transform="rotate(-44.9 32567 -35258)"><tspan class="TextParagraph" font-family="Liberation Sans, sans-serif" font-size="353px" font-weight="400"><tspan class="TextPosition" x="32662" y="28028"><tspan fill="rgb(0,0,0)" stroke="none" style="white-space: pre">70</tspan></tspan></tspan></text>
 <text class="SVGTextShape" transform="rotate(-44.9 33468 -35258)"><tspan class="TextParagraph" font-family="Liberation Sans, sans-serif" font-size="353px" font-weight="400"><tspan class="TextPosition" x="33563" y="28028"><tspan fill="rgb(0,0,0)" stroke="none" style="white-space: pre">72</tspan></tspan></tspan></text>
 <text class="SVGTextShape" transform="rotate(-44.9 34370 -35258)"><tspan class="TextParagraph" font-family="Liberation Sans, sans-serif" font-size="353px" font-weight="400"><tspan class="TextPosition" x="34465" y="28028"><tspan fill="rgb(0,0,0)" stroke="none" style="white-space: pre">74</tspan></tspan></tspan></text>
 <text class="SVGTextShape" transform="rotate(-44.9 35271 -35258)"><tspan class="TextParagraph" font-family="Liberation Sans, sans-serif" font-size="353px" font-weight="400"><tspan class="TextPosition" x="35366" y="28028"><tspan fill="rgb(0,0,0)" stroke="none" style="white-space: pre">76</tspan></tspan></tspan></text>
 <text class="SVGTextShape" transform="rotate(-44.9 36173 -35258)"><tspan class="TextParagraph" font-family="Liberation Sans, sans-serif" font-size="353px" font-weight="400"><tspan class="TextPosition" x="36268" y="28028"><tspan fill="rgb(0,0,0)" stroke="none" style="white-space: pre">78</tspan></tspan></tspan></text>
 <text class="SVGTextShape" transform="rotate(-44.9 37075 -35258)"><tspan class="TextParagraph" font-family="Liberation Sans, sans-serif" font-size="353px" font-weight="400"><tspan class="TextPosition" x="37170" y="28028"><tspan fill="rgb(0,0,0)" stroke="none" style="white-space: pre">80</tspan></tspan></tspan></text>
 <text class="SVGTextShape" transform="rotate(-44.9 37976 -35258)"><tspan class="TextParagraph" font-family="Liberation Sans, sans-serif" font-size="353px" font-weight="400"><tspan class="TextPosition" x="38071" y="28028"><tspan fill="rgb(0,0,0)" stroke="none" style="white-space: pre">82</tspan></tspan></tspan></text>
 <text class="SVGTextShape" transform="rotate(-44.9 38878 -35258)"><tspan class="TextParagraph" font-family="Liberation Sans, sans-serif" font-size="353px" font-weight="400"><tspan class="TextPosition" x="38973" y="28028"><tspan fill="rgb(0,0,0)" stroke="none" style="white-space: pre">84</tspan></tspan></tspan></text>
 <text class="SVGTextShape" transform="rotate(-44.9 39779 -35258)"><tspan class="TextParagraph" font-family="Liberation Sans, sans-serif" font-size="353px" font-weight="400"><tspan class="TextPosition" x="39874" y="28028"><tspan fill="rgb(0,0,0)" stroke="none" style="white-space: pre">86</tspan></tspan></tspan></text>
 <text class="SVGTextShape" transform="rotate(-44.9 40681 -35258)"><tspan class="TextParagraph" font-family="Liberation Sans, sans-serif" font-size="353px" font-weight="400"><tspan class="TextPosition" x="40776" y="28028"><tspan fill="rgb(0,0,0)" stroke="none" style="white-space: pre">88</tspan></tspan></tspan></text>
 <text class="SVGTextShape" transform="rotate(-44.9 41583 -35258)"><tspan class="TextParagraph" font-family="Liberation Sans, sans-serif" font-size="353px" font-weight="400"><tspan class="TextPosition" x="41678" y="28028"><tspan fill="rgb(0,0,0)" stroke="none" style="white-space: pre">90</tspan></tspan></tspan></text>
 <text class="SVGTextShape" transform="rotate(-44.9 42484 -35258)"><tspan class="TextParagraph" font-family="Liberation Sans, sans-serif" font-size="353px" font-weight="400"><tspan class="TextPosition" x="42579" y="28028"><tspan fill="rgb(0,0,0)" stroke="none" style="white-space: pre">92</tspan></tspan></tspan></text>
 <text class="SVGTextShape" transform="rotate(-44.9 43386 -35258)"><tspan class="TextParagraph" font-family="Liberation Sans, sans-serif" font-size="353px" font-weight="400"><tspan class="TextPosition" x="43481" y="28028"><tspan fill="rgb(0,0,0)" stroke="none" style="white-space: pre">94</tspan></tspan></tspan></text>
 <text class="SVGTextShape" transform="rotate(-44.9 44287 -35258)"><tspan class="TextParagraph" font-family="Liberation Sans, sans-serif" font-size="353px" font-weight="400"><tspan class="TextPosition" x="44382" y="28028"><tspan fill="rgb(0,0,0)" stroke="none" style="white-space: pre">96</tspan></tspan></tspan></text>
 <text class="SVGTextShape" transform="rotate(-44.9 45189 -35258)"><tspan class="TextParagraph" font-family="Liberation Sans, sans-serif" font-size="353px" font-weight="400"><tspan class="TextPosition" x="45284" y="28028"><tspan fill="rgb(0,0,0)" stroke="none" style="white-space: pre">98</tspan></tspan></tspan></text>
 <text class="SVGTextShape" transform="rotate(-44.9 45959 -35126)"><tspan class="TextParagraph" font-family="Liberation Sans, sans-serif" font-size="353px" font-weight="400"><tspan class="TextPosition" x="46054" y="28160"><tspan fill="rgb(0,0,0)" stroke="none" style="white-space: pre">100</tspan></tspan></tspan></text>
 <text class="SVGTextShape"><tspan class="TextParagraph" font-family="Liberation Sans, sans-serif" font-size="353px" font-weight="400"><tspan class="TextPosition" x="1753" y="27412"><tspan fill="rgb(0,0,0)" stroke="none" style="white-space: pre">0</tspan></tspan></tspan></text>
 <text class="SVGTextShape"><tspan class="TextParagraph" font-family="Liberation Sans, sans-serif" font-size="353px" font-weight="400"><tspan class="TextPosition" x="1012" y="23238"><tspan fill="rgb(0,0,0)" stroke="none" style="white-space: pre">10000</tspan></tspan></tspan></text>
 <text class="SVGTextShape"><tspan class="TextParagraph" font-family="Liberation Sans, sans-serif" font-size="353px" font-weight="400"><tspan class="TextPosition" x="1012" y="19065"><tspan fill="rgb(0,0,0)" stroke="none" style="white-space: pre">20000</tspan></tspan></tspan></text>
 <text class="SVGTextShape"><tspan class="TextParagraph" font-family="Liberation Sans, sans-serif" font-size="353px" font-weight="400"><tspan class="TextPosition" x="1012" y="14891"><tspan fill="rgb(0,0,0)" stroke="none" style="white-space: pre">30000</tspan></tspan></tspan></text>
 <text class="SVGTextShape"><tspan class="TextParagraph" font-family="Liberation Sans, sans-serif" font-size="353px" font-weight="400"><tspan class="TextPosition" x="1012" y="10718"><tspan fill="rgb(0,0,0)" stroke="none" style="white-space: pre">40000</tspan></tspan></tspan></text>
 <text class="SVGTextShape"><tspan class="TextParagraph" font-family="Liberation Sans, sans-serif" font-size="353px" font-weight="400"><tspan class="TextPosition" x="1012" y="6545"><tspan fill="rgb(0,0,0)" stroke="none" style="white-space: pre">50000</tspan></tspan></tspan></text>
 <text class="SVGTextShape"><tspan class="TextParagraph" font-family="Liberation Sans, sans-serif" font-size="353px" font-weight="400"><tspan class="TextPosition" x="1012" y="2372"><tspan fill="rgb(0,0,0)" stroke="none" style="white-space: pre">60000</tspan></tspan></tspan></text>
 <text class="SVGTextShape"><tspan class="TextParagraph" font-family="Liberation Sans, sans-serif" font-size="459px" font-weight="400"><tspan class="TextPosition" x="22670" y="1234"><tspan fill="rgb(0,0,0)" stroke="none" style="white-space: pre">50k Elements Memory Usage</tspan></tspan></tspan></text>
 <path fill="none" stroke="rgb(255,66,14)" stroke-width="80" stroke-linejoin="round" d="M 47645,13891 L 48445,13891"/>
 <path fill="none" stroke="rgb(129,212,26)" stroke-width="80" stroke-linejoin="round" d="M 47645,14389 L 48445,14389"/>
 <path fill="none" stroke="rgb(0,132,209)" stroke-width="80" stroke-linejoin="round" d="M 47645,14886 L 48445,14886"/>
 <text class="SVGTextShape"><tspan class="TextParagraph" font-family="Liberation Sans, sans-serif" font-size="353px" font-weight="400"><tspan class="TextPosition" x="48545" y="14011"><tspan fill="rgb(0,0,0)" stroke="none" style="white-space: pre">bitpacked</tspan></tspan></tspan></text>
 <text class="SVGTextShape"><tspan class="TextParagraph" font-family="Liberation Sans, sans-serif" font-size="353px" font-weight="400"><tspan class="TextPosition" x="48545" y="14508"><tspan fill="rgb(0,0,0)" stroke="none" style="white-space: pre">subbitpacked</tspan></tspan></tspan></text>
 <text class="SVGTextShape"><tspan class="TextParagraph" font-family="Liberation Sans, sans-serif" font-size="353px" font-weight="400"><tspan class="TextPosition" x="48545" y="15006"><tspan fill="rgb(0,0,0)" stroke="none" style="white-space: pre">superbitpacked</tspan></tspan></tspan></text>
</svg>