<?xml version="1.0" encoding="UTF-8"?><svg id="Ebene_1" xmlns="http://www.w3.org/2000/svg" xmlns:xlink="http://www.w3.org/1999/xlink" viewBox="0 0 210 110.5"><defs><style>.cls-1{fill:url(#Unbenannter_Verlauf_2);}.cls-2{stroke:#000;stroke-miterlimit:10;}.cls-2,.cls-3,.cls-4{fill:none;}.cls-5{fill:url(#Unbenannter_Verlauf_4);}.cls-6{fill:gray;}.cls-3{isolation:isolate;}.cls-7{fill:url(#Unbenannter_Verlauf);}.cls-8{fill:url(#Unbenannter_Verlauf_5);}.cls-9{fill:url(#Unbenannter_Verlauf_3);}</style><linearGradient id="Unbenannter_Verlauf" x1="-835.93" y1="589.94" x2="-835.93" y2="588.94" gradientTransform="translate(41901.5 47196) scale(50 -80)" gradientUnits="userSpaceOnUse"><stop offset="0" stop-color="#f89292"/><stop offset="1" stop-color="#ea3b28"/></linearGradient><linearGradient id="Unbenannter_Verlauf_2" x1="-838.78" y1="589.94" x2="-838.78" y2="588.94" gradientTransform="translate(50506.51 47196) scale(60 -80)" gradientUnits="userSpaceOnUse"><stop offset="0" stop-color="#fff2cc"/><stop offset="1" stop-color="#ffd966"/></linearGradient><linearGradient id="Unbenannter_Verlauf_3" x1="-867.23" y1="601.06" x2="-867.23" y2="602.06" gradientTransform="translate(-51963.5 -48084) rotate(-180) scale(60 -80)" gradientUnits="userSpaceOnUse"><stop offset="0" stop-color="#ffdc52"/><stop offset="1" stop-color="orange"/></linearGradient><linearGradient id="Unbenannter_Verlauf_4" x1="-838.77" y1="589.94" x2="-838.77" y2="588.94" gradientTransform="translate(50466.5 47196) scale(60 -80)" gradientUnits="userSpaceOnUse"><stop offset="0" stop-color="#ffdc52"/><stop offset="1" stop-color="orange"/></linearGradient><linearGradient id="Unbenannter_Verlauf_5" x1="-867.22" y1="601.06" x2="-867.22" y2="602.06" gradientTransform="translate(-52003.5 -48084) rotate(-180) scale(60 -80)" gradientUnits="userSpaceOnUse"><stop offset="0" stop-color="#fff2cc"/><stop offset="1" stop-color="#ffd966"/></linearGradient></defs><rect class="cls-7" x="80" y=".5" width="50" height="80" pointer-events="all"/><path class="cls-1" d="m170,.5h40c-26.67,26.67-26.67,53.33,0,80h-40c-26.67-26.67-26.67-53.33,0-80Z" pointer-events="all"/><path class="cls-9" d="m80,80.5h-40c26.67-26.67,26.67-53.33,0-80h40c26.67,26.67,26.67,53.33,0,80Z" pointer-events="all"/><path class="cls-5" d="m130,.5h40c-26.67,26.67-26.67,53.33,0,80h-40c-26.67-26.67-26.67-53.33,0-80Z" pointer-events="all"/><path class="cls-8" d="m40,80.5H0C26.67,53.83,26.67,27.17,0,.5h40c26.67,26.67,26.67,53.33,0,80Z" pointer-events="all"/><path class="cls-2" d="m0,.5h210" pointer-events="stroke"/><path class="cls-2" d="m0,80.5h210" pointer-events="stroke"/><rect class="cls-4" y="80.5" width="210" height="30" pointer-events="all"/><g class="cls-3"><path class="cls-6" d="m11.42,90.39v-.27c0-.2.04-.33.11-.42s.17-.13.3-.13.22.04.3.13.11.22.11.42v2.09c0,.2-.04.33-.11.42s-.17.13-.3.13c-.12,0-.21-.04-.29-.12s-.12-.21-.12-.38c-.03-.55-.31-1.04-.84-1.47s-1.23-.65-2.08-.65c-.9,0-1.62.23-2.16.7s-.8,1.01-.8,1.65c0,.33.07.62.22.89s.35.48.6.65.53.3.84.4.8.21,1.46.32c1.11.18,1.88.37,2.3.56.57.25.99.61,1.28,1.05s.43.98.43,1.59c0,.94-.37,1.74-1.12,2.4s-1.76.99-3.03.99c-1.43,0-2.56-.45-3.42-1.34v.47c0,.2-.04.33-.11.42s-.17.13-.3.13c-.12,0-.21-.04-.29-.13s-.12-.22-.12-.42v-2.27c0-.2.04-.34.11-.43s.17-.13.3-.13c.12,0,.21.04.29.12s.12.21.12.38c.03.6.35,1.14.96,1.64s1.43.74,2.46.74,1.84-.26,2.44-.77.89-1.12.89-1.83c0-.43-.11-.81-.34-1.15s-.57-.6-1.02-.8c-.31-.14-.96-.29-1.95-.46-1.36-.23-2.34-.58-2.94-1.04s-.9-1.14-.9-2,.34-1.6,1.03-2.22,1.59-.93,2.72-.93,2.13.36,2.96,1.08Z"/><path class="cls-6" d="m23.29,101v-1.2c-1.12,1.02-2.33,1.52-3.63,1.52-.8,0-1.41-.22-1.83-.65-.54-.57-.81-1.24-.81-2v-5.29h-1.1c-.2,0-.34-.04-.42-.12s-.13-.18-.13-.3c0-.12.04-.21.13-.29s.22-.12.42-.12h1.92v6.12c0,.53.17.97.51,1.32s.76.52,1.27.52c1.33,0,2.56-.61,3.67-1.84v-5.29h-1.51c-.2,0-.34-.04-.42-.12s-.13-.18-.13-.3c0-.12.04-.21.13-.29s.22-.12.42-.12h2.33v7.64h.69c.2,0,.34.04.42.11s.13.17.13.3c0,.12-.04.21-.13.29s-.22.12-.42.12h-1.51Z"/><path class="cls-6" d="m29.4,88.74v5.44c.99-1.29,2.18-1.93,3.58-1.93,1.2,0,2.22.43,3.08,1.3s1.28,1.94,1.28,3.2-.43,2.36-1.29,3.24-1.88,1.33-3.06,1.33c-1.43,0-2.63-.64-3.58-1.93v1.61h-1.92c-.2,0-.34-.04-.42-.12s-.13-.18-.13-.29c0-.12.04-.22.13-.3s.22-.11.42-.11h1.1v-10.61h-1.1c-.2,0-.34-.04-.42-.12s-.13-.18-.13-.3c0-.12.04-.21.13-.29s.22-.12.42-.12h1.92Zm7.12,8.05c0-1.04-.35-1.91-1.06-2.63s-1.54-1.08-2.49-1.08-1.78.36-2.49,1.08-1.06,1.6-1.06,2.63.35,1.91,1.06,2.63,1.54,1.08,2.49,1.08,1.78-.36,2.49-1.08,1.06-1.6,1.06-2.63Z"/><path class="cls-6" d="m40.99,100.18v-9.79h-1.1c-.2,0-.34-.04-.42-.11s-.13-.17-.13-.3.04-.22.13-.3.22-.11.42-.11h5.16c1.02,0,1.85.29,2.5.88s.96,1.28.96,2.08c0,1-.54,1.81-1.61,2.43.85.31,1.48.71,1.88,1.22s.6,1.07.6,1.68c0,.55-.13,1.05-.39,1.5s-.66.84-1.2,1.16-1.12.48-1.75.48h-6.13c-.2,0-.34-.04-.42-.12s-.13-.18-.13-.29c0-.12.04-.22.13-.3s.22-.11.42-.11h1.1Zm.82-5.53h2.9c.62,0,1.19-.11,1.7-.34.4-.18.71-.45.93-.79s.33-.7.33-1.05c0-.51-.24-.99-.72-1.42s-1.11-.65-1.88-.65h-3.25v4.26Zm0,5.53h4.15c.53,0,.99-.12,1.38-.35s.69-.52.89-.87.3-.7.3-1.07c0-.42-.15-.82-.43-1.21s-.69-.69-1.21-.89-1.22-.3-2.13-.3h-2.95v4.7Z"/><path class="cls-6" d="m56.93,92.54v7.64h3.22c.2,0,.35.04.43.11s.13.17.13.3c0,.12-.04.21-.13.29s-.23.12-.43.12h-7.27c-.2,0-.34-.04-.42-.12s-.13-.18-.13-.29c0-.12.04-.22.13-.3s.22-.11.42-.11h3.22v-6.81h-2.39c-.2,0-.34-.04-.42-.12s-.13-.18-.13-.29c0-.12.04-.22.13-.3s.23-.12.43-.12h3.21Zm-.03-4.21v2.12h-1.21v-2.12h1.21Z"/><path class="cls-6" d="m66.81,92.54h4.45c.2,0,.34.04.42.12s.13.18.13.3c0,.12-.04.21-.13.29s-.22.12-.42.12h-4.45v5.46c0,.48.19.87.57,1.19s.94.48,1.67.48c.55,0,1.15-.08,1.8-.25s1.15-.35,1.5-.56c.13-.08.24-.13.32-.13.1,0,.2.04.27.12s.12.18.12.29c0,.1-.04.19-.13.27-.21.21-.71.45-1.52.7s-1.57.38-2.31.38c-.96,0-1.72-.22-2.29-.67s-.85-1.05-.85-1.82v-5.46h-1.51c-.2,0-.34-.04-.42-.12s-.13-.18-.13-.3c0-.12.04-.21.13-.29s.22-.12.42-.12h1.51v-2.42c0-.2.04-.33.12-.42s.18-.13.29-.13c.12,0,.22.04.3.13s.12.22.12.42v2.42Z"/><path class="cls-6" d="m78.71,96.31v3.87h2.81c.2,0,.34.04.42.11s.13.17.13.3c0,.12-.04.21-.13.29s-.22.12-.42.12h-4.74c-.2,0-.34-.04-.42-.12s-.13-.18-.13-.29c0-.12.04-.22.13-.3s.22-.11.42-.11h1.1v-9.79h-1.1c-.2,0-.34-.04-.42-.11s-.13-.17-.13-.3.04-.22.13-.3.22-.11.42-.11h4.77c1.13,0,2.05.33,2.76,1s1.07,1.44,1.07,2.33c0,.53-.12,1-.35,1.43s-.51.75-.83,1c-.49.36-.99.63-1.51.8-.38.12-.85.19-1.41.19h-2.57Zm0-.82h2.62c.61,0,1.17-.13,1.7-.41s.92-.6,1.16-.99.37-.79.37-1.19c0-.64-.28-1.22-.83-1.74s-1.25-.77-2.1-.77h-2.92v5.1Z"/><path class="cls-6" d="m94.86,101v-1.18c-1.19,1-2.46,1.5-3.82,1.5-.98,0-1.75-.25-2.3-.75s-.83-1.11-.83-1.83c0-.79.36-1.49,1.09-2.08s1.79-.89,3.19-.89c.38,0,.79.02,1.23.07s.92.12,1.44.23v-1.33c0-.45-.21-.84-.62-1.17s-1.04-.5-1.88-.5c-.64,0-1.53.19-2.69.56-.21.07-.34.1-.4.1-.1,0-.19-.04-.27-.12s-.11-.18-.11-.29c0-.11.03-.2.1-.26.09-.1.46-.23,1.1-.4,1.02-.27,1.78-.41,2.3-.41,1.04,0,1.84.26,2.42.77s.87,1.09.87,1.73v5.43h1.09c.2,0,.35.04.43.11s.13.17.13.3c0,.12-.04.21-.13.29s-.23.12-.43.12h-1.92Zm0-4.08c-.38-.11-.79-.19-1.22-.24s-.88-.08-1.36-.08c-1.19,0-2.12.26-2.79.77-.51.38-.76.84-.76,1.38,0,.5.19.91.58,1.25s.95.51,1.69.51,1.37-.14,1.98-.42,1.24-.73,1.88-1.35v-1.81Z"/><path class="cls-6" d="m107.92,93.37v-.27c0-.2.04-.34.12-.43s.18-.13.29-.13c.12,0,.22.04.3.13s.12.23.12.43v1.86c0,.2-.05.34-.12.43s-.17.13-.3.13c-.11,0-.2-.04-.28-.11s-.12-.2-.13-.38c-.04-.46-.34-.9-.91-1.32-.57-.42-1.34-.62-2.3-.62-1.22,0-2.14.38-2.77,1.14s-.95,1.63-.95,2.62c0,1.06.35,1.94,1.04,2.63s1.6,1.04,2.71,1.04c.64,0,1.29-.12,1.95-.35.66-.23,1.26-.61,1.79-1.13.14-.13.26-.2.36-.2.11,0,.2.04.28.11s.11.17.11.28c0,.28-.33.63-.99,1.06-1.06.7-2.24,1.04-3.54,1.04s-2.41-.42-3.26-1.26-1.27-1.91-1.27-3.21.43-2.42,1.3-3.29,1.96-1.31,3.29-1.31,2.31.37,3.16,1.12Z"/><path class="cls-6" d="m114.84,97.35v3.65h-1.92c-.2,0-.33-.04-.42-.12s-.13-.18-.13-.29c0-.12.04-.22.13-.3s.22-.11.42-.11h1.1v-10.61h-1.1c-.2,0-.33-.04-.42-.12s-.13-.18-.13-.3c0-.12.04-.21.13-.29s.22-.12.42-.12h1.92v7.56l3.49-2.93h-.42c-.2,0-.33-.04-.42-.12s-.13-.18-.13-.29c0-.12.04-.22.13-.3s.22-.12.42-.12h2.63c.2,0,.34.04.43.12s.13.18.13.3c0,.12-.04.21-.13.29s-.23.12-.43.12h-.95l-3.2,2.68,4.05,4.13h.95c.2,0,.34.04.43.11s.13.17.13.3c0,.12-.04.21-.13.29s-.23.12-.43.12h-2.66c-.2,0-.33-.04-.42-.12s-.13-.18-.13-.29c0-.12.04-.22.13-.3s.22-.11.42-.11h.58l-3.53-3.62-.94.79Z"/><path class="cls-6" d="m132.94,96.97h-8.36c.14,1.06.59,1.92,1.33,2.56s1.67.97,2.77.97c.61,0,1.25-.1,1.92-.3s1.22-.47,1.64-.8c.12-.1.23-.15.32-.15.1,0,.2.04.27.12s.12.18.12.29-.05.22-.16.32c-.31.33-.87.63-1.67.91s-1.62.42-2.46.42c-1.41,0-2.58-.46-3.52-1.38s-1.41-2.04-1.41-3.34c0-1.19.44-2.21,1.32-3.07s1.97-1.28,3.28-1.28,2.44.44,3.31,1.31,1.29,2.01,1.28,3.4Zm-.83-.83c-.16-.91-.59-1.64-1.28-2.21s-1.52-.85-2.48-.85-1.78.28-2.47.84-1.12,1.3-1.29,2.22h7.52Z"/><path class="cls-6" d="m144.52,88.74v11.44h1.09c.2,0,.34.04.43.11s.13.17.13.3c0,.12-.04.21-.13.29s-.23.12-.43.12h-1.92v-1.63c-.95,1.3-2.16,1.95-3.62,1.95-.74,0-1.45-.2-2.13-.59s-1.22-.96-1.61-1.68-.59-1.48-.59-2.26.2-1.54.59-2.26.93-1.29,1.61-1.68,1.39-.6,2.14-.6c1.43,0,2.64.65,3.61,1.95v-4.63h-1.09c-.2,0-.34-.04-.43-.12s-.13-.18-.13-.3c0-.12.04-.21.13-.29s.23-.12.43-.12h1.92Zm-.83,8.05c0-1.04-.35-1.92-1.05-2.64s-1.54-1.07-2.51-1.07-1.82.36-2.52,1.07-1.05,1.59-1.05,2.64.35,1.91,1.05,2.63,1.54,1.08,2.52,1.08,1.81-.36,2.51-1.08,1.05-1.6,1.05-2.63Z"/><path class="cls-6" d="m155.21,97.18h-5.39l-1.1,3h1.57c.2,0,.33.04.42.11s.13.17.13.3c0,.12-.04.21-.13.29s-.22.12-.42.12h-3.07c-.2,0-.33-.04-.42-.12s-.13-.18-.13-.29c0-.12.04-.22.13-.3s.22-.11.42-.11h.63l3.62-9.79h-2.42c-.2,0-.33-.04-.42-.11s-.13-.17-.13-.3.04-.22.13-.3.22-.11.42-.11h4.13l4,10.61h.63c.2,0,.33.04.42.11s.13.17.13.3c0,.12-.04.21-.13.29s-.22.12-.42.12h-3.06c-.2,0-.34-.04-.43-.12s-.13-.18-.13-.29c0-.12.04-.22.13-.3s.23-.11.43-.11h1.56l-1.12-3Zm-.31-.82l-2.27-5.97h-.3l-2.2,5.97h4.77Z"/><path class="cls-6" d="m163.53,92.54v2.07c1.07-.96,1.87-1.58,2.4-1.86s1.02-.42,1.47-.42c.49,0,.94.16,1.36.49s.63.58.63.75c0,.12-.04.23-.12.31s-.18.12-.31.12c-.07,0-.12-.01-.17-.03s-.13-.1-.25-.22c-.23-.23-.43-.38-.6-.47s-.33-.13-.5-.13c-.36,0-.79.14-1.29.43s-1.38.99-2.62,2.1v4.49h3.63c.2,0,.34.04.43.11s.13.17.13.3c0,.12-.04.21-.13.29s-.23.12-.43.12h-6.44c-.2,0-.33-.04-.42-.11s-.13-.17-.13-.29c0-.11.04-.2.12-.28s.22-.11.42-.11h1.98v-6.84h-1.51c-.2,0-.33-.04-.42-.12s-.13-.18-.13-.3c0-.12.04-.21.12-.29s.22-.12.42-.12h2.33Z"/><path class="cls-6" d="m175.53,92.54v2.07c1.07-.96,1.87-1.58,2.4-1.86s1.02-.42,1.47-.42c.49,0,.94.16,1.36.49s.63.58.63.75c0,.12-.04.23-.12.31s-.18.12-.31.12c-.07,0-.12-.01-.17-.03s-.13-.1-.25-.22c-.23-.23-.43-.38-.6-.47s-.33-.13-.5-.13c-.36,0-.79.14-1.29.43s-1.38.99-2.62,2.1v4.49h3.63c.2,0,.34.04.43.11s.13.17.13.3c0,.12-.04.21-.13.29s-.23.12-.43.12h-6.44c-.2,0-.33-.04-.42-.11s-.13-.17-.13-.29c0-.11.04-.2.12-.28s.22-.11.42-.11h1.98v-6.84h-1.51c-.2,0-.33-.04-.42-.12s-.13-.18-.13-.3c0-.12.04-.21.12-.29s.22-.12.42-.12h2.33Z"/><path class="cls-6" d="m190.87,101v-1.18c-1.19,1-2.46,1.5-3.82,1.5-.98,0-1.75-.25-2.3-.75s-.83-1.11-.83-1.83c0-.79.36-1.49,1.09-2.08s1.79-.89,3.19-.89c.38,0,.79.02,1.23.07s.92.12,1.44.23v-1.33c0-.45-.21-.84-.62-1.17s-1.04-.5-1.88-.5c-.64,0-1.53.19-2.69.56-.21.07-.34.1-.4.1-.1,0-.19-.04-.27-.12s-.11-.18-.11-.29c0-.11.03-.2.1-.26.09-.1.46-.23,1.1-.4,1.02-.27,1.78-.41,2.3-.41,1.04,0,1.84.26,2.42.77s.87,1.09.87,1.73v5.43h1.09c.2,0,.34.04.43.11s.13.17.13.3c0,.12-.04.21-.13.29s-.23.12-.43.12h-1.92Zm0-4.08c-.38-.11-.79-.19-1.22-.24s-.88-.08-1.36-.08c-1.19,0-2.12.26-2.79.77-.51.38-.76.84-.76,1.38,0,.5.19.91.58,1.25s.95.51,1.69.51,1.37-.14,1.98-.42,1.24-.73,1.88-1.35v-1.81Z"/><path class="cls-6" d="m200.57,101l-3.81-7.63h-.24c-.2,0-.33-.04-.42-.12s-.13-.18-.13-.29c0-.08.02-.16.06-.23s.1-.12.17-.15.17-.04.32-.04h2.25c.2,0,.33.04.42.12s.13.18.13.3c0,.12-.04.21-.13.29s-.22.12-.42.12h-1.1l3.35,6.73,3.3-6.73h-1.1c-.2,0-.33-.04-.42-.12s-.13-.18-.13-.3c0-.12.04-.21.13-.29s.22-.12.42-.12h2.24c.2,0,.34.04.43.12s.13.18.13.3c0,.08-.03.16-.08.23s-.11.12-.18.14-.25.03-.55.03l-5.2,10.58h1.28c.2,0,.33.04.42.11s.13.17.13.3c0,.12-.04.21-.13.29s-.22.12-.42.12h-4.73c-.2,0-.33-.04-.42-.11s-.13-.17-.13-.3.04-.22.13-.3.22-.11.42-.11h2.57l1.45-2.95Z"/></g></svg>